<svg xmlns="http://www.w3.org/2000/svg" xmlns:xlink="http://www.w3.org/1999/xlink" width="512" zoomAndPan="magnify" viewBox="0 0 810 809.999993" height="512" preserveAspectRatio="xMidYMid meet" version="1.0"><defs><g/><clipPath id="2c35e5ecd5"><path d="M 250 199 L 424.902344 199 L 424.902344 419 L 250 419 Z M 250 199 " clip-rule="nonzero"/></clipPath><clipPath id="ac3e547723"><path d="M 245.652344 195 L 424.902344 195 L 424.902344 424 L 245.652344 424 Z M 245.652344 195 " clip-rule="nonzero"/></clipPath><clipPath id="0ccea956b9"><path d="M 396 199 L 574.957031 199 L 574.957031 419 L 396 419 Z M 396 199 " clip-rule="nonzero"/></clipPath><clipPath id="8b316405e6"><path d="M 392 195 L 574.957031 195 L 574.957031 424 L 392 424 Z M 392 195 " clip-rule="nonzero"/></clipPath><clipPath id="1ff74adf13"><path d="M 523.347656 187.707031 L 610.347656 187.707031 L 610.347656 274.707031 L 523.347656 274.707031 Z M 523.347656 187.707031 " clip-rule="nonzero"/></clipPath><clipPath id="148d3c80fe"><path d="M 523.347656 340.59375 L 610.347656 340.59375 L 610.347656 427.59375 L 523.347656 427.59375 Z M 523.347656 340.59375 " clip-rule="nonzero"/></clipPath></defs><rect x="-81" width="972" fill="#ffffff" y="-80.999999" height="971.999992" fill-opacity="1"/><rect x="-81" width="972" fill="#ffffff" y="-80.999999" height="971.999992" fill-opacity="1"/><rect x="-81" width="972" fill="#fffefa" y="-80.999999" height="971.999992" fill-opacity="1"/><g fill="#000000" fill-opacity="1"><g transform="translate(196.94847, 617.682178)"><g><path d="M 7.75 0 C 8.003906 0 8.148438 -0.136719 8.148438 -0.394531 L 8.148438 -6.480469 L 13.335938 -14.320312 C 13.519531 -14.570312 13.40625 -14.792969 13.085938 -14.792969 L 10.726562 -14.792969 C 10.523438 -14.792969 10.351562 -14.703125 10.246094 -14.519531 L 6.796875 -8.992188 L 3.359375 -14.519531 C 3.253906 -14.703125 3.101562 -14.792969 2.890625 -14.792969 L 0.53125 -14.792969 C 0.222656 -14.792969 0.0976562 -14.570312 0.277344 -14.320312 L 5.429688 -6.472656 L 5.429688 -0.394531 C 5.429688 -0.136719 5.574219 0 5.824219 0 Z M 7.75 0 "/></g></g></g><g fill="#000000" fill-opacity="1"><g transform="translate(218.808449, 617.682178)"><g><path d="M 8.667969 0.347656 C 13.171875 0.347656 16.503906 -2.773438 16.503906 -7.394531 C 16.503906 -12.007812 13.171875 -15.136719 8.667969 -15.136719 C 4.167969 -15.136719 0.847656 -12.007812 0.847656 -7.394531 C 0.847656 -2.773438 4.167969 0.347656 8.667969 0.347656 Z M 8.667969 -2.167969 C 5.769531 -2.167969 3.5625 -4.257812 3.5625 -7.394531 C 3.5625 -10.542969 5.757812 -12.625 8.667969 -12.625 C 11.574219 -12.625 13.800781 -10.542969 13.800781 -7.394531 C 13.800781 -4.246094 11.574219 -2.167969 8.667969 -2.167969 Z M 8.667969 -2.167969 "/></g></g></g><g fill="#000000" fill-opacity="1"><g transform="translate(244.423348, 617.682178)"><g><path d="M 7.058594 0.347656 C 10.199219 0.347656 12.789062 -1.164062 12.789062 -4.824219 L 12.789062 -14.394531 C 12.789062 -14.65625 12.652344 -14.792969 12.394531 -14.792969 L 10.417969 -14.792969 C 10.167969 -14.792969 10.023438 -14.65625 10.023438 -14.394531 L 10.023438 -5.34375 C 10.023438 -2.996094 8.925781 -2.148438 7.058594 -2.148438 C 5.230469 -2.148438 4.101562 -2.996094 4.101562 -5.34375 L 4.101562 -14.394531 C 4.101562 -14.65625 3.96875 -14.792969 3.707031 -14.792969 L 1.734375 -14.792969 C 1.484375 -14.792969 1.339844 -14.65625 1.339844 -14.394531 L 1.339844 -4.824219 C 1.339844 -1.164062 3.996094 0.347656 7.058594 0.347656 Z M 7.058594 0.347656 "/></g></g></g><g fill="#000000" fill-opacity="1"><g transform="translate(266.793609, 617.682178)"><g><path d="M 9.792969 -5.324219 C 11.410156 -6.085938 12.257812 -7.625 12.257812 -9.851562 C 12.257812 -12.828125 10.726562 -14.792969 6.652344 -14.792969 L 1.859375 -14.792969 C 1.597656 -14.792969 1.464844 -14.65625 1.464844 -14.394531 L 1.464844 -0.394531 C 1.464844 -0.136719 1.597656 0 1.859375 0 L 3.773438 0 C 4.035156 0 4.167969 -0.136719 4.167969 -0.394531 L 4.167969 -4.796875 L 7.136719 -4.796875 L 9.398438 -0.296875 C 9.496094 -0.0976562 9.628906 0 9.851562 0 L 12.054688 0 C 12.355469 0 12.480469 -0.191406 12.34375 -0.472656 Z M 4.167969 -12.394531 L 6.308594 -12.394531 C 7.367188 -12.394531 9.570312 -12.375 9.570312 -9.832031 C 9.570312 -7.210938 7.25 -7.183594 6.308594 -7.183594 L 4.167969 -7.183594 Z M 4.167969 -12.394531 "/></g></g></g><g fill="#000000" fill-opacity="1"><g transform="translate(288.432147, 617.682178)"><g/></g></g><g fill="#000000" fill-opacity="1"><g transform="translate(302.58973, 617.682178)"><g><path d="M 5.796875 0 C 10.882812 0 13.636719 -2.78125 13.636719 -7.40625 C 13.636719 -12.074219 10.84375 -14.792969 5.796875 -14.792969 L 1.859375 -14.792969 C 1.597656 -14.792969 1.464844 -14.65625 1.464844 -14.394531 L 1.464844 -0.394531 C 1.464844 -0.136719 1.597656 0 1.859375 0 Z M 4.1875 -12.394531 L 5.789062 -12.394531 C 9.0625 -12.394531 10.929688 -10.640625 10.929688 -7.433594 C 10.929688 -4.226562 9.0625 -2.398438 5.789062 -2.398438 L 4.1875 -2.398438 Z M 4.1875 -12.394531 "/></g></g></g><g fill="#000000" fill-opacity="1"><g transform="translate(325.354745, 617.682178)"><g><path d="M 9.832031 0 C 10.09375 0 10.226562 -0.136719 10.226562 -0.394531 L 10.226562 -2.003906 C 10.226562 -2.253906 10.09375 -2.398438 9.832031 -2.398438 L 4.167969 -2.398438 L 4.167969 -4.871094 L 9.0625 -4.871094 C 9.320312 -4.871094 9.457031 -5.007812 9.457031 -5.265625 L 9.457031 -6.769531 C 9.457031 -7.03125 9.320312 -7.164062 9.0625 -7.164062 L 4.167969 -7.164062 L 4.167969 -12.394531 L 9.832031 -12.394531 C 10.09375 -12.394531 10.226562 -12.539062 10.226562 -12.789062 L 10.226562 -14.394531 C 10.226562 -14.65625 10.09375 -14.792969 9.832031 -14.792969 L 1.859375 -14.792969 C 1.597656 -14.792969 1.464844 -14.65625 1.464844 -14.394531 L 1.464844 -0.394531 C 1.464844 -0.136719 1.597656 0 1.859375 0 Z M 9.832031 0 "/></g></g></g><g fill="#000000" fill-opacity="1"><g transform="translate(344.740331, 617.682178)"><g><path d="M 5.777344 0.347656 C 8.367188 0.347656 10.804688 -0.867188 10.804688 -3.792969 C 10.804688 -6.394531 8.742188 -7.539062 6.886719 -8.511719 C 5.199219 -9.371094 3.773438 -10.023438 3.773438 -11.316406 C 3.773438 -12.363281 4.699219 -12.769531 5.84375 -12.769531 C 6.789062 -12.769531 7.894531 -12.507812 8.925781 -12.074219 C 9.15625 -11.980469 9.339844 -12.066406 9.4375 -12.296875 L 9.949219 -13.828125 C 10.042969 -14.058594 9.976562 -14.242188 9.734375 -14.339844 C 8.40625 -14.839844 6.960938 -15.136719 5.796875 -15.136719 C 3.3125 -15.136719 1.039062 -13.964844 1.039062 -11.121094 C 1.039062 -8.753906 2.734375 -7.625 4.527344 -6.644531 C 6.347656 -5.664062 8.058594 -4.96875 8.058594 -3.660156 C 8.058594 -2.570312 7.125 -2.011719 5.710938 -2.011719 C 4.699219 -2.011719 3.429688 -2.253906 2.003906 -2.917969 C 1.761719 -3.023438 1.578125 -2.964844 1.484375 -2.734375 L 0.886719 -1.136719 C 0.789062 -0.894531 0.855469 -0.722656 1.105469 -0.605469 C 2.925781 0.105469 4.363281 0.347656 5.777344 0.347656 Z M 5.777344 0.347656 "/></g></g></g><g fill="#000000" fill-opacity="1"><g transform="translate(364.568806, 617.682178)"><g><path d="M 3.765625 0 C 4.023438 0 4.160156 -0.136719 4.160156 -0.394531 L 4.160156 -6.636719 L 9.542969 -0.222656 C 9.679688 -0.0585938 9.832031 0 10.023438 0 L 12.71875 0 C 13.046875 0 13.152344 -0.230469 12.933594 -0.480469 L 6.789062 -7.75 L 12.777344 -14.300781 C 13.007812 -14.550781 12.902344 -14.792969 12.578125 -14.792969 L 10.121094 -14.792969 C 9.917969 -14.792969 9.765625 -14.742188 9.621094 -14.578125 L 4.160156 -8.628906 L 4.160156 -14.394531 C 4.160156 -14.65625 4.023438 -14.792969 3.765625 -14.792969 L 1.859375 -14.792969 C 1.597656 -14.792969 1.464844 -14.65625 1.464844 -14.394531 L 1.464844 -0.394531 C 1.464844 -0.136719 1.597656 0 1.859375 0 Z M 3.765625 0 "/></g></g></g><g fill="#000000" fill-opacity="1"><g transform="translate(386.293997, 617.682178)"><g/></g></g><g fill="#000000" fill-opacity="1"><g transform="translate(400.45158, 617.682178)"><g><path d="M 3.726562 0 C 3.988281 0 4.121094 -0.136719 4.121094 -0.394531 L 4.121094 -8.945312 L 12.507812 0 C 13.046875 0.53125 13.53125 0.355469 13.53125 -0.347656 L 13.53125 -14.394531 C 13.53125 -14.65625 13.394531 -14.792969 13.136719 -14.792969 L 11.277344 -14.792969 C 11.027344 -14.792969 10.882812 -14.65625 10.882812 -14.394531 L 10.882812 -6.078125 L 2.445312 -14.839844 C 1.945312 -15.339844 1.484375 -15.15625 1.484375 -14.453125 L 1.484375 -0.394531 C 1.484375 -0.136719 1.617188 0 1.878906 0 Z M 3.726562 0 "/></g></g></g><g fill="#000000" fill-opacity="1"><g transform="translate(423.71725, 617.682178)"><g><path d="M 9.832031 0 C 10.09375 0 10.226562 -0.136719 10.226562 -0.394531 L 10.226562 -2.003906 C 10.226562 -2.253906 10.09375 -2.398438 9.832031 -2.398438 L 4.167969 -2.398438 L 4.167969 -4.871094 L 9.0625 -4.871094 C 9.320312 -4.871094 9.457031 -5.007812 9.457031 -5.265625 L 9.457031 -6.769531 C 9.457031 -7.03125 9.320312 -7.164062 9.0625 -7.164062 L 4.167969 -7.164062 L 4.167969 -12.394531 L 9.832031 -12.394531 C 10.09375 -12.394531 10.226562 -12.539062 10.226562 -12.789062 L 10.226562 -14.394531 C 10.226562 -14.65625 10.09375 -14.792969 9.832031 -14.792969 L 1.859375 -14.792969 C 1.597656 -14.792969 1.464844 -14.65625 1.464844 -14.394531 L 1.464844 -0.394531 C 1.464844 -0.136719 1.597656 0 1.859375 0 Z M 9.832031 0 "/></g></g></g><g fill="#000000" fill-opacity="1"><g transform="translate(443.102837, 617.682178)"><g><path d="M 3.167969 0 C 3.371094 0 3.523438 -0.0664062 3.628906 -0.277344 L 6.605469 -5.46875 L 9.570312 -0.277344 C 9.6875 -0.0664062 9.832031 0 10.035156 0 L 12.414062 0 C 12.730469 0 12.835938 -0.210938 12.671875 -0.472656 L 8.234375 -7.445312 L 12.613281 -14.320312 C 12.777344 -14.578125 12.671875 -14.792969 12.355469 -14.792969 L 9.984375 -14.792969 C 9.785156 -14.792969 9.628906 -14.722656 9.523438 -14.511719 L 6.605469 -9.390625 L 3.679688 -14.511719 C 3.574219 -14.722656 3.417969 -14.792969 3.214844 -14.792969 L 0.855469 -14.792969 C 0.539062 -14.792969 0.433594 -14.578125 0.597656 -14.320312 L 4.976562 -7.445312 L 0.53125 -0.472656 C 0.367188 -0.210938 0.472656 0 0.789062 0 Z M 3.167969 0 "/></g></g></g><g fill="#000000" fill-opacity="1"><g transform="translate(464.568071, 617.682178)"><g><path d="M 6.222656 0 C 6.480469 0 6.617188 -0.136719 6.617188 -0.394531 L 6.617188 -12.394531 L 9.820312 -12.394531 C 10.082031 -12.394531 10.21875 -12.539062 10.21875 -12.789062 L 10.21875 -14.394531 C 10.21875 -14.65625 10.082031 -14.792969 9.820312 -14.792969 L 0.691406 -14.792969 C 0.433594 -14.792969 0.296875 -14.65625 0.296875 -14.394531 L 0.296875 -12.789062 C 0.296875 -12.539062 0.433594 -12.394531 0.691406 -12.394531 L 3.890625 -12.394531 L 3.890625 -0.394531 C 3.890625 -0.136719 4.035156 0 4.285156 0 Z M 6.222656 0 "/></g></g></g><g fill="#000000" fill-opacity="1"><g transform="translate(483.337467, 617.682178)"><g/></g></g><g fill="#000000" fill-opacity="1"><g transform="translate(497.495036, 617.682178)"><g><path d="M 5.796875 0 C 10.882812 0 13.636719 -2.78125 13.636719 -7.40625 C 13.636719 -12.074219 10.84375 -14.792969 5.796875 -14.792969 L 1.859375 -14.792969 C 1.597656 -14.792969 1.464844 -14.65625 1.464844 -14.394531 L 1.464844 -0.394531 C 1.464844 -0.136719 1.597656 0 1.859375 0 Z M 4.1875 -12.394531 L 5.789062 -12.394531 C 9.0625 -12.394531 10.929688 -10.640625 10.929688 -7.433594 C 10.929688 -4.226562 9.0625 -2.398438 5.789062 -2.398438 L 4.1875 -2.398438 Z M 4.1875 -12.394531 "/></g></g></g><g fill="#000000" fill-opacity="1"><g transform="translate(520.260037, 617.682178)"><g><path d="M 8.667969 0.347656 C 13.171875 0.347656 16.503906 -2.773438 16.503906 -7.394531 C 16.503906 -12.007812 13.171875 -15.136719 8.667969 -15.136719 C 4.167969 -15.136719 0.847656 -12.007812 0.847656 -7.394531 C 0.847656 -2.773438 4.167969 0.347656 8.667969 0.347656 Z M 8.667969 -2.167969 C 5.769531 -2.167969 3.5625 -4.257812 3.5625 -7.394531 C 3.5625 -10.542969 5.757812 -12.625 8.667969 -12.625 C 11.574219 -12.625 13.800781 -10.542969 13.800781 -7.394531 C 13.800781 -4.246094 11.574219 -2.167969 8.667969 -2.167969 Z M 8.667969 -2.167969 "/></g></g></g><g fill="#000000" fill-opacity="1"><g transform="translate(545.874927, 617.682178)"><g><path d="M 8.667969 0.347656 C 13.171875 0.347656 16.503906 -2.773438 16.503906 -7.394531 C 16.503906 -12.007812 13.171875 -15.136719 8.667969 -15.136719 C 4.167969 -15.136719 0.847656 -12.007812 0.847656 -7.394531 C 0.847656 -2.773438 4.167969 0.347656 8.667969 0.347656 Z M 8.667969 -2.167969 C 5.769531 -2.167969 3.5625 -4.257812 3.5625 -7.394531 C 3.5625 -10.542969 5.757812 -12.625 8.667969 -12.625 C 11.574219 -12.625 13.800781 -10.542969 13.800781 -7.394531 C 13.800781 -4.246094 11.574219 -2.167969 8.667969 -2.167969 Z M 8.667969 -2.167969 "/></g></g></g><g fill="#000000" fill-opacity="1"><g transform="translate(571.489817, 617.682178)"><g><path d="M 9.792969 -5.324219 C 11.410156 -6.085938 12.257812 -7.625 12.257812 -9.851562 C 12.257812 -12.828125 10.726562 -14.792969 6.652344 -14.792969 L 1.859375 -14.792969 C 1.597656 -14.792969 1.464844 -14.65625 1.464844 -14.394531 L 1.464844 -0.394531 C 1.464844 -0.136719 1.597656 0 1.859375 0 L 3.773438 0 C 4.035156 0 4.167969 -0.136719 4.167969 -0.394531 L 4.167969 -4.796875 L 7.136719 -4.796875 L 9.398438 -0.296875 C 9.496094 -0.0976562 9.628906 0 9.851562 0 L 12.054688 0 C 12.355469 0 12.480469 -0.191406 12.34375 -0.472656 Z M 4.167969 -12.394531 L 6.308594 -12.394531 C 7.367188 -12.394531 9.570312 -12.375 9.570312 -9.832031 C 9.570312 -7.210938 7.25 -7.183594 6.308594 -7.183594 L 4.167969 -7.183594 Z M 4.167969 -12.394531 "/></g></g></g><g fill="#000000" fill-opacity="1"><g transform="translate(187.698195, 537.571314)"><g><path d="M 93.859375 -90.625 L 93.859375 0 L 76.640625 0 L 31.453125 -55.015625 L 31.453125 0 L 10.75 0 L 10.75 -90.625 L 28.09375 -90.625 L 73.140625 -35.59375 L 73.140625 -90.625 Z M 93.859375 -90.625 "/></g></g></g><g fill="#000000" fill-opacity="1"><g transform="translate(305.636125, 537.571314)"><g><path d="M 80.90625 -16.828125 L 80.90625 0 L 10.75 0 L 10.75 -90.625 L 79.21875 -90.625 L 79.21875 -73.78125 L 31.59375 -73.78125 L 31.59375 -54.109375 L 73.65625 -54.109375 L 73.65625 -37.796875 L 31.59375 -37.796875 L 31.59375 -16.828125 Z M 80.90625 -16.828125 "/></g></g></g><g fill="#000000" fill-opacity="1"><g transform="translate(405.838057, 537.571314)"><g><path d="M 67.828125 0 L 45.953125 -31.453125 L 24.46875 0 L 0.390625 0 L 33.921875 -46.078125 L 2.078125 -90.625 L 25.890625 -90.625 L 46.734375 -61.234375 L 67.1875 -90.625 L 89.84375 -90.625 L 58.25 -46.859375 L 92.046875 0 Z M 67.828125 0 "/></g></g></g><g fill="#000000" fill-opacity="1"><g transform="translate(511.606779, 537.571314)"><g><path d="M 29.515625 -73.53125 L 0.515625 -73.53125 L 0.515625 -90.625 L 79.484375 -90.625 L 79.484375 -73.53125 L 50.484375 -73.53125 L 50.484375 0 L 29.515625 0 Z M 29.515625 -73.53125 "/></g></g></g><g fill="#000000" fill-opacity="1"><g transform="translate(193.634009, 583.006348)"><g><path d="M 5.640625 -34.59375 L 19.71875 -34.59375 C 23.375 -34.59375 26.601562 -33.859375 29.40625 -32.390625 C 32.207031 -30.929688 34.378906 -28.890625 35.921875 -26.265625 C 37.472656 -23.648438 38.25 -20.660156 38.25 -17.296875 C 38.25 -13.929688 37.472656 -10.941406 35.921875 -8.328125 C 34.378906 -5.710938 32.207031 -3.671875 29.40625 -2.203125 C 26.601562 -0.734375 23.375 0 19.71875 0 L 5.640625 0 Z M 19.515625 -3.15625 C 22.546875 -3.15625 25.195312 -3.753906 27.46875 -4.953125 C 29.75 -6.160156 31.515625 -7.828125 32.765625 -9.953125 C 34.015625 -12.078125 34.640625 -14.523438 34.640625 -17.296875 C 34.640625 -20.066406 34.015625 -22.515625 32.765625 -24.640625 C 31.515625 -26.765625 29.75 -28.425781 27.46875 -29.625 C 25.195312 -30.832031 22.546875 -31.4375 19.515625 -31.4375 L 9.296875 -31.4375 L 9.296875 -3.15625 Z M 19.515625 -3.15625 "/></g></g></g><g fill="#000000" fill-opacity="1"><g transform="translate(270.3703, 583.006348)"><g/></g></g><g fill="#000000" fill-opacity="1"><g transform="translate(319.242679, 583.006348)"><g><path d="M 30.09375 -3.15625 L 30.09375 0 L 5.640625 0 L 5.640625 -34.59375 L 29.359375 -34.59375 L 29.359375 -31.4375 L 9.296875 -31.4375 L 9.296875 -19.125 L 27.1875 -19.125 L 27.1875 -16.015625 L 9.296875 -16.015625 L 9.296875 -3.15625 Z M 30.09375 -3.15625 "/></g></g></g><g fill="#000000" fill-opacity="1"><g transform="translate(388.22252, 583.006348)"><g/></g></g><g fill="#000000" fill-opacity="1"><g transform="translate(437.0949, 583.006348)"><g><path d="M 15.171875 0.296875 C 12.597656 0.296875 10.132812 -0.113281 7.78125 -0.9375 C 5.425781 -1.757812 3.609375 -2.847656 2.328125 -4.203125 L 3.75 -7.015625 C 5.007812 -5.765625 6.675781 -4.75 8.75 -3.96875 C 10.820312 -3.195312 12.960938 -2.8125 15.171875 -2.8125 C 18.265625 -2.8125 20.585938 -3.378906 22.140625 -4.515625 C 23.691406 -5.660156 24.46875 -7.140625 24.46875 -8.953125 C 24.46875 -10.328125 24.046875 -11.425781 23.203125 -12.25 C 22.359375 -13.070312 21.328125 -13.707031 20.109375 -14.15625 C 18.890625 -14.601562 17.195312 -15.09375 15.03125 -15.625 C 12.425781 -16.28125 10.347656 -16.910156 8.796875 -17.515625 C 7.242188 -18.128906 5.914062 -19.0625 4.8125 -20.3125 C 3.707031 -21.5625 3.15625 -23.257812 3.15625 -25.40625 C 3.15625 -27.144531 3.617188 -28.734375 4.546875 -30.171875 C 5.472656 -31.609375 6.890625 -32.753906 8.796875 -33.609375 C 10.703125 -34.460938 13.070312 -34.890625 15.90625 -34.890625 C 17.882812 -34.890625 19.820312 -34.617188 21.71875 -34.078125 C 23.613281 -33.535156 25.253906 -32.785156 26.640625 -31.828125 L 25.40625 -28.90625 C 23.957031 -29.863281 22.40625 -30.582031 20.75 -31.0625 C 19.101562 -31.539062 17.488281 -31.78125 15.90625 -31.78125 C 12.875 -31.78125 10.59375 -31.191406 9.0625 -30.015625 C 7.53125 -28.847656 6.765625 -27.34375 6.765625 -25.5 C 6.765625 -24.113281 7.1875 -23 8.03125 -22.15625 C 8.875 -21.320312 9.925781 -20.679688 11.1875 -20.234375 C 12.457031 -19.796875 14.164062 -19.3125 16.3125 -18.78125 C 18.84375 -18.15625 20.890625 -17.535156 22.453125 -16.921875 C 24.023438 -16.316406 25.351562 -15.394531 26.4375 -14.15625 C 27.53125 -12.925781 28.078125 -11.253906 28.078125 -9.140625 C 28.078125 -7.398438 27.601562 -5.8125 26.65625 -4.375 C 25.71875 -2.9375 24.273438 -1.796875 22.328125 -0.953125 C 20.390625 -0.117188 18.003906 0.296875 15.171875 0.296875 Z M 15.171875 0.296875 "/></g></g></g><g fill="#000000" fill-opacity="1"><g transform="translate(503.406908, 583.006348)"><g/></g></g><g fill="#000000" fill-opacity="1"><g transform="translate(552.279275, 583.006348)"><g><path d="M 16.359375 -16.265625 L 9.296875 -9.09375 L 9.296875 0 L 5.640625 0 L 5.640625 -34.59375 L 9.296875 -34.59375 L 9.296875 -13.6875 L 29.609375 -34.59375 L 33.796875 -34.59375 L 18.828125 -18.921875 L 34.84375 0 L 30.5 0 Z M 16.359375 -16.265625 "/></g></g></g><g clip-path="url(#2c35e5ecd5)"><path fill="#00cb75" d="M 404.015625 335.488281 L 345.332031 377.597656 L 295.410156 413.417969 C 276.464844 427.011719 250.066406 413.484375 250.066406 390.175781 C 250.066406 380.792969 254.671875 372.003906 262.394531 366.660156 L 345.332031 309.238281 L 262.394531 251.816406 C 254.671875 246.472656 250.066406 237.683594 250.066406 228.300781 C 250.066406 204.992188 276.464844 191.464844 295.410156 205.058594 L 345.332031 240.882812 L 404.015625 282.992188 C 421.988281 295.882812 421.988281 322.59375 404.015625 335.488281 Z M 550.160156 282.992188 L 491.472656 240.882812 L 441.554688 205.058594 C 422.605469 191.464844 396.207031 204.992188 396.207031 228.300781 C 396.207031 237.683594 400.816406 246.472656 408.535156 251.816406 L 491.472656 309.238281 L 408.535156 366.660156 C 400.8125 372.007812 396.207031 380.792969 396.207031 390.179688 C 396.207031 413.484375 422.605469 427.015625 441.554688 413.417969 L 491.472656 377.597656 L 550.160156 335.488281 C 568.128906 322.59375 568.128906 295.882812 550.160156 282.992188 Z M 550.160156 282.992188 " fill-opacity="1" fill-rule="nonzero"/></g><g clip-path="url(#ac3e547723)"><path fill="#231f20" d="M 421.824219 309.238281 C 421.824219 297.292969 416.253906 286.445312 406.542969 279.476562 L 297.9375 201.546875 C 287.84375 194.304688 274.710938 193.328125 263.65625 198.992188 C 252.601562 204.65625 245.734375 215.886719 245.734375 228.300781 C 245.734375 239.101562 251.039062 249.222656 259.925781 255.375 L 337.726562 309.238281 L 259.925781 363.101562 C 251.039062 369.257812 245.734375 379.378906 245.734375 390.175781 C 245.734375 402.589844 252.601562 413.820312 263.65625 419.484375 C 268.429688 421.933594 273.589844 423.136719 278.722656 423.136719 C 285.484375 423.136719 292.203125 421.046875 297.9375 416.929688 L 406.542969 339.003906 C 416.253906 332.03125 421.824219 321.183594 421.824219 309.238281 Z M 401.488281 331.972656 L 292.882812 409.902344 C 285.332031 415.320312 275.882812 416.023438 267.609375 411.785156 C 259.335938 407.546875 254.398438 399.46875 254.398438 390.175781 C 254.398438 382.214844 258.308594 374.75 264.859375 370.21875 L 347.800781 312.796875 C 348.964844 311.988281 349.664062 310.660156 349.664062 309.238281 C 349.664062 307.820312 348.964844 306.492188 347.800781 305.683594 L 264.859375 248.261719 C 258.308594 243.726562 254.398438 236.265625 254.398438 228.300781 C 254.398438 219.011719 259.335938 210.933594 267.609375 206.691406 C 271.195312 204.855469 274.996094 203.945312 278.773438 203.945312 C 283.710938 203.945312 288.605469 205.503906 292.886719 208.578125 L 401.488281 286.507812 C 408.90625 291.828125 413.160156 300.113281 413.160156 309.242188 C 413.164062 318.363281 408.90625 326.648438 401.488281 331.972656 Z M 552.683594 279.476562 L 444.082031 201.546875 C 433.992188 194.304688 420.855469 193.328125 409.796875 198.992188 C 398.746094 204.65625 391.878906 215.886719 391.878906 228.300781 C 391.878906 239.101562 397.183594 249.222656 406.070312 255.375 L 483.871094 309.238281 L 406.070312 363.101562 C 397.183594 369.253906 391.878906 379.375 391.878906 390.175781 C 391.878906 402.589844 398.746094 413.820312 409.796875 419.484375 C 414.570312 421.929688 419.730469 423.136719 424.867188 423.136719 C 431.625 423.136719 438.347656 421.042969 444.082031 416.929688 L 552.683594 339 C 562.398438 332.03125 567.96875 321.183594 567.96875 309.238281 C 567.96875 297.292969 562.398438 286.445312 552.683594 279.476562 Z M 547.632812 331.972656 L 439.027344 409.902344 C 431.476562 415.320312 422.023438 416.023438 413.75 411.785156 C 405.476562 407.542969 400.539062 399.464844 400.539062 390.175781 C 400.539062 382.214844 404.449219 374.75 411.003906 370.21875 L 493.941406 312.796875 C 495.109375 311.988281 495.804688 310.660156 495.804688 309.238281 C 495.804688 307.820312 495.109375 306.492188 493.941406 305.683594 L 411.003906 248.261719 C 404.453125 243.726562 400.539062 236.265625 400.539062 228.300781 C 400.539062 219.011719 405.480469 210.933594 413.75 206.695312 C 417.335938 204.855469 421.140625 203.949219 424.914062 203.949219 C 429.855469 203.949219 434.746094 205.503906 439.027344 208.578125 L 547.628906 286.507812 C 555.046875 291.832031 559.304688 300.117188 559.304688 309.242188 C 559.304688 318.363281 555.050781 326.648438 547.632812 331.972656 Z M 547.632812 331.972656 " fill-opacity="1" fill-rule="nonzero"/></g><g clip-path="url(#0ccea956b9)"><path fill="#eddc48" d="M 550.320312 335.488281 L 491.636719 377.597656 L 441.714844 413.417969 C 422.765625 427.011719 396.371094 413.484375 396.371094 390.175781 C 396.371094 380.792969 400.976562 372.003906 408.695312 366.660156 L 491.636719 309.238281 L 408.695312 251.816406 C 400.976562 246.472656 396.371094 237.683594 396.371094 228.300781 C 396.371094 204.992188 422.765625 191.464844 441.714844 205.058594 L 491.636719 240.882812 L 550.320312 282.992188 C 568.289062 295.882812 568.289062 322.59375 550.320312 335.488281 Z M 696.460938 282.992188 L 637.777344 240.882812 L 587.859375 205.058594 C 568.910156 191.464844 542.511719 204.992188 542.511719 228.300781 C 542.511719 237.683594 547.117188 246.472656 554.839844 251.816406 L 637.777344 309.238281 L 554.839844 366.660156 C 547.117188 372.007812 542.511719 380.792969 542.511719 390.179688 C 542.511719 413.484375 568.910156 427.015625 587.859375 413.417969 L 637.777344 377.597656 L 696.460938 335.488281 C 714.433594 322.59375 714.433594 295.882812 696.460938 282.992188 Z M 696.460938 282.992188 " fill-opacity="1" fill-rule="nonzero"/></g><g clip-path="url(#8b316405e6)"><path fill="#231f20" d="M 568.128906 309.238281 C 568.128906 297.292969 562.558594 286.445312 552.847656 279.476562 L 444.242188 201.546875 C 434.148438 194.304688 421.011719 193.328125 409.960938 198.992188 C 398.90625 204.65625 392.039062 215.886719 392.039062 228.300781 C 392.039062 239.101562 397.34375 249.222656 406.230469 255.375 L 484.03125 309.238281 L 406.230469 363.101562 C 397.34375 369.257812 392.039062 379.378906 392.039062 390.175781 C 392.039062 402.589844 398.90625 413.820312 409.960938 419.484375 C 414.730469 421.933594 419.890625 423.136719 425.027344 423.136719 C 431.789062 423.136719 438.507812 421.046875 444.242188 416.929688 L 552.847656 339.003906 C 562.558594 332.03125 568.128906 321.183594 568.128906 309.238281 Z M 547.792969 331.972656 L 439.1875 409.902344 C 431.632812 415.320312 422.1875 416.023438 413.914062 411.785156 C 405.640625 407.546875 400.699219 399.46875 400.699219 390.175781 C 400.699219 382.214844 404.613281 374.75 411.164062 370.21875 L 494.101562 312.796875 C 495.269531 311.988281 495.964844 310.660156 495.964844 309.238281 C 495.964844 307.820312 495.269531 306.492188 494.101562 305.683594 L 411.164062 248.261719 C 404.613281 243.726562 400.699219 236.265625 400.699219 228.300781 C 400.699219 219.011719 405.640625 210.933594 413.914062 206.691406 C 417.496094 204.855469 421.300781 203.945312 425.078125 203.945312 C 430.015625 203.945312 434.90625 205.503906 439.1875 208.578125 L 547.792969 286.507812 C 555.210938 291.828125 559.464844 300.113281 559.464844 309.242188 C 559.464844 318.363281 555.210938 326.648438 547.792969 331.972656 Z M 698.988281 279.476562 L 590.382812 201.546875 C 580.296875 194.304688 567.160156 193.328125 556.101562 198.992188 C 545.046875 204.65625 538.179688 215.886719 538.179688 228.300781 C 538.179688 239.101562 543.488281 249.222656 552.371094 255.375 L 630.175781 309.238281 L 552.371094 363.101562 C 543.488281 369.253906 538.179688 379.375 538.179688 390.175781 C 538.179688 402.589844 545.046875 413.820312 556.101562 419.484375 C 560.875 421.929688 566.03125 423.136719 571.171875 423.136719 C 577.929688 423.136719 584.652344 421.042969 590.382812 416.929688 L 698.988281 339 C 708.699219 332.03125 714.269531 321.183594 714.269531 309.238281 C 714.269531 297.292969 708.699219 286.445312 698.988281 279.476562 Z M 693.9375 331.972656 L 585.332031 409.902344 C 577.78125 415.320312 568.328125 416.023438 560.054688 411.785156 C 551.78125 407.542969 546.84375 399.464844 546.84375 390.175781 C 546.84375 382.214844 550.753906 374.75 557.304688 370.21875 L 640.242188 312.796875 C 641.410156 311.988281 642.109375 310.660156 642.109375 309.238281 C 642.109375 307.820312 641.414062 306.492188 640.242188 305.683594 L 557.304688 248.261719 C 550.753906 243.726562 546.84375 236.265625 546.84375 228.300781 C 546.84375 219.011719 551.78125 210.933594 560.054688 206.695312 C 563.640625 204.855469 567.445312 203.949219 571.21875 203.949219 C 576.160156 203.949219 581.046875 205.503906 585.328125 208.578125 L 693.933594 286.507812 C 701.351562 291.832031 705.609375 300.117188 705.609375 309.242188 C 705.609375 318.363281 701.355469 326.648438 693.9375 331.972656 Z M 693.9375 331.972656 " fill-opacity="1" fill-rule="nonzero"/></g><g clip-path="url(#1ff74adf13)"><path fill="#fffefa" d="M 610.347656 231.203125 C 610.347656 232.628906 610.277344 234.050781 610.136719 235.46875 C 609.996094 236.886719 609.789062 238.292969 609.511719 239.691406 C 609.234375 241.089844 608.886719 242.46875 608.472656 243.832031 C 608.058594 245.195312 607.582031 246.535156 607.035156 247.851562 C 606.488281 249.167969 605.882812 250.453125 605.210938 251.710938 C 604.539062 252.964844 603.808594 254.1875 603.015625 255.371094 C 602.222656 256.554688 601.375 257.699219 600.472656 258.800781 C 599.570312 259.902344 598.613281 260.957031 597.605469 261.964844 C 596.597656 262.96875 595.542969 263.925781 594.441406 264.828125 C 593.339844 265.734375 592.199219 266.582031 591.015625 267.371094 C 589.828125 268.164062 588.609375 268.894531 587.351562 269.566406 C 586.097656 270.238281 584.808594 270.847656 583.492188 271.394531 C 582.175781 271.9375 580.835938 272.417969 579.472656 272.832031 C 578.109375 273.246094 576.730469 273.589844 575.332031 273.867188 C 573.9375 274.144531 572.527344 274.355469 571.109375 274.496094 C 569.691406 274.632812 568.273438 274.703125 566.847656 274.703125 C 565.421875 274.703125 564 274.632812 562.582031 274.496094 C 561.164062 274.355469 559.757812 274.144531 558.359375 273.867188 C 556.964844 273.589844 555.582031 273.246094 554.21875 272.832031 C 552.855469 272.417969 551.515625 271.9375 550.199219 271.394531 C 548.882812 270.847656 547.597656 270.238281 546.339844 269.566406 C 545.085938 268.894531 543.863281 268.164062 542.679688 267.371094 C 541.496094 266.582031 540.351562 265.734375 539.25 264.828125 C 538.148438 263.925781 537.097656 262.96875 536.089844 261.964844 C 535.082031 260.957031 534.125 259.902344 533.222656 258.800781 C 532.316406 257.699219 531.46875 256.554688 530.679688 255.371094 C 529.886719 254.1875 529.15625 252.964844 528.484375 251.710938 C 527.8125 250.453125 527.203125 249.167969 526.660156 247.851562 C 526.113281 246.535156 525.632812 245.195312 525.222656 243.832031 C 524.808594 242.46875 524.460938 241.089844 524.183594 239.691406 C 523.90625 238.292969 523.695312 236.886719 523.558594 235.46875 C 523.417969 234.050781 523.347656 232.628906 523.347656 231.203125 C 523.347656 229.78125 523.417969 228.359375 523.558594 226.941406 C 523.695312 225.523438 523.90625 224.117188 524.183594 222.71875 C 524.460938 221.320312 524.808594 219.941406 525.222656 218.578125 C 525.632812 217.214844 526.113281 215.875 526.660156 214.558594 C 527.203125 213.242188 527.8125 211.957031 528.484375 210.699219 C 529.15625 209.441406 529.886719 208.222656 530.679688 207.039062 C 531.46875 205.851562 532.316406 204.710938 533.222656 203.609375 C 534.125 202.507812 535.082031 201.453125 536.089844 200.445312 C 537.097656 199.4375 538.148438 198.484375 539.25 197.578125 C 540.351562 196.675781 541.496094 195.828125 542.679688 195.035156 C 543.863281 194.246094 545.085938 193.511719 546.339844 192.839844 C 547.597656 192.167969 548.882812 191.5625 550.199219 191.015625 C 551.515625 190.472656 552.855469 189.992188 554.21875 189.578125 C 555.582031 189.164062 556.964844 188.820312 558.359375 188.539062 C 559.757812 188.261719 561.164062 188.054688 562.582031 187.914062 C 564 187.773438 565.421875 187.707031 566.847656 187.707031 C 568.273438 187.707031 569.691406 187.773438 571.109375 187.914062 C 572.527344 188.054688 573.9375 188.261719 575.332031 188.539062 C 576.730469 188.820312 578.109375 189.164062 579.472656 189.578125 C 580.835938 189.992188 582.175781 190.472656 583.492188 191.015625 C 584.808594 191.5625 586.097656 192.167969 587.351562 192.839844 C 588.609375 193.511719 589.828125 194.246094 591.015625 195.035156 C 592.199219 195.828125 593.339844 196.675781 594.441406 197.578125 C 595.542969 198.484375 596.597656 199.4375 597.605469 200.445312 C 598.613281 201.453125 599.570312 202.507812 600.472656 203.609375 C 601.375 204.710938 602.222656 205.851562 603.015625 207.039062 C 603.808594 208.222656 604.539062 209.441406 605.210938 210.699219 C 605.882812 211.957031 606.488281 213.242188 607.035156 214.558594 C 607.582031 215.875 608.058594 217.214844 608.472656 218.578125 C 608.886719 219.941406 609.234375 221.320312 609.511719 222.71875 C 609.789062 224.117188 609.996094 225.523438 610.136719 226.941406 C 610.277344 228.359375 610.347656 229.78125 610.347656 231.203125 Z M 610.347656 231.203125 " fill-opacity="1" fill-rule="nonzero"/></g><g clip-path="url(#148d3c80fe)"><path fill="#fffefa" d="M 610.347656 384.089844 C 610.347656 385.515625 610.277344 386.9375 610.136719 388.355469 C 609.996094 389.773438 609.789062 391.179688 609.511719 392.578125 C 609.234375 393.976562 608.886719 395.355469 608.472656 396.71875 C 608.058594 398.082031 607.582031 399.421875 607.035156 400.738281 C 606.488281 402.054688 605.882812 403.339844 605.210938 404.597656 C 604.539062 405.851562 603.808594 407.074219 603.015625 408.257812 C 602.222656 409.441406 601.375 410.585938 600.472656 411.6875 C 599.570312 412.789062 598.613281 413.84375 597.605469 414.851562 C 596.597656 415.859375 595.542969 416.8125 594.441406 417.71875 C 593.339844 418.621094 592.199219 419.46875 591.015625 420.261719 C 589.828125 421.050781 588.609375 421.78125 587.351562 422.453125 C 586.097656 423.125 584.808594 423.734375 583.492188 424.28125 C 582.175781 424.824219 580.835938 425.304688 579.472656 425.71875 C 578.109375 426.132812 576.730469 426.476562 575.332031 426.753906 C 573.9375 427.03125 572.527344 427.242188 571.109375 427.382812 C 569.691406 427.519531 568.273438 427.589844 566.847656 427.589844 C 565.421875 427.589844 564 427.519531 562.582031 427.382812 C 561.164062 427.242188 559.757812 427.03125 558.359375 426.753906 C 556.964844 426.476562 555.582031 426.132812 554.21875 425.71875 C 552.855469 425.304688 551.515625 424.824219 550.199219 424.28125 C 548.882812 423.734375 547.597656 423.125 546.339844 422.453125 C 545.085938 421.78125 543.863281 421.050781 542.679688 420.261719 C 541.496094 419.46875 540.351562 418.621094 539.25 417.71875 C 538.148438 416.8125 537.097656 415.859375 536.089844 414.851562 C 535.082031 413.84375 534.125 412.789062 533.222656 411.6875 C 532.316406 410.585938 531.46875 409.441406 530.679688 408.257812 C 529.886719 407.074219 529.15625 405.851562 528.484375 404.597656 C 527.8125 403.339844 527.203125 402.054688 526.660156 400.738281 C 526.113281 399.421875 525.632812 398.082031 525.222656 396.71875 C 524.808594 395.355469 524.460938 393.976562 524.183594 392.578125 C 523.90625 391.179688 523.695312 389.773438 523.558594 388.355469 C 523.417969 386.9375 523.347656 385.515625 523.347656 384.089844 C 523.347656 382.667969 523.417969 381.246094 523.558594 379.828125 C 523.695312 378.410156 523.90625 377.003906 524.183594 375.605469 C 524.460938 374.207031 524.808594 372.828125 525.222656 371.464844 C 525.632812 370.101562 526.113281 368.761719 526.660156 367.445312 C 527.203125 366.128906 527.8125 364.84375 528.484375 363.585938 C 529.15625 362.328125 529.886719 361.109375 530.679688 359.925781 C 531.46875 358.738281 532.316406 357.597656 533.222656 356.496094 C 534.125 355.394531 535.082031 354.339844 536.089844 353.332031 C 537.097656 352.324219 538.148438 351.371094 539.25 350.464844 C 540.351562 349.5625 541.496094 348.714844 542.679688 347.921875 C 543.863281 347.132812 545.085938 346.398438 546.339844 345.726562 C 547.597656 345.058594 548.882812 344.449219 550.199219 343.902344 C 551.515625 343.359375 552.855469 342.878906 554.21875 342.464844 C 555.582031 342.050781 556.964844 341.707031 558.359375 341.429688 C 559.757812 341.148438 561.164062 340.941406 562.582031 340.800781 C 564 340.660156 565.421875 340.59375 566.847656 340.59375 C 568.273438 340.59375 569.691406 340.660156 571.109375 340.800781 C 572.527344 340.941406 573.9375 341.148438 575.332031 341.429688 C 576.730469 341.707031 578.109375 342.050781 579.472656 342.464844 C 580.835938 342.878906 582.175781 343.359375 583.492188 343.902344 C 584.808594 344.449219 586.097656 345.058594 587.351562 345.726562 C 588.609375 346.398438 589.828125 347.132812 591.015625 347.921875 C 592.199219 348.714844 593.339844 349.5625 594.441406 350.464844 C 595.542969 351.371094 596.597656 352.324219 597.605469 353.332031 C 598.613281 354.339844 599.570312 355.394531 600.472656 356.496094 C 601.375 357.597656 602.222656 358.738281 603.015625 359.925781 C 603.808594 361.109375 604.539062 362.328125 605.210938 363.585938 C 605.882812 364.84375 606.488281 366.128906 607.035156 367.445312 C 607.582031 368.761719 608.058594 370.101562 608.472656 371.464844 C 608.886719 372.828125 609.234375 374.207031 609.511719 375.605469 C 609.789062 377.003906 609.996094 378.410156 610.136719 379.828125 C 610.277344 381.246094 610.347656 382.667969 610.347656 384.089844 Z M 610.347656 384.089844 " fill-opacity="1" fill-rule="nonzero"/></g></svg>