<svg xmlns="http://www.w3.org/2000/svg" width="1080" viewBox="0 0 810 810" height="1080" version="1.0">
		<defs>
				<clipPath id="a">
						<path d="M250 199h174.902v221H250Zm0 0"/>
				</clipPath>
				<clipPath id="b">
						<path d="M245.652 195h179.25v229h-179.25Zm0 0"/>
				</clipPath>
				<clipPath id="c">
						<path d="M396 199h178.957v221H396Zm0 0"/>
				</clipPath>
				<clipPath id="d">
						<path d="M392 195h182.957v229H392Zm0 0"/>
				</clipPath>
				<clipPath id="e">
						<path d="M535.852 190.727h80.25v80.25h-80.25Zm0 0"/>
				</clipPath>
				<clipPath id="f">
						<path d="M535.852 346.777h80.25v80.25h-80.25Zm0 0"/>
				</clipPath>
		</defs>
		<path fill="#fff" d="M-81-81h972v972H-81z"/>
		<path fill="#fffefa" d="M-81-81h972v972H-81z"/>
		<path d="M281.545 446.946v90.625h-17.22l-45.186-55.016v55.016h-20.704v-90.625h17.344l45.046 55.031v-55.031Zm104.984 73.797v16.828h-70.156v-90.625h68.469v16.844h-47.625v19.672h42.062v16.312h-42.062v20.969Zm87.123 16.828-21.875-31.453-21.483 31.453h-24.08l33.53-46.078-31.841-44.547h23.813l20.843 29.39 20.453-29.39h22.657l-31.595 43.766 33.797 46.859Zm67.457-73.531h-29v-17.094h78.968v17.094h-29v73.531h-20.968ZM199.26 548.412h14.08c3.656 0 6.883.735 9.687 2.203 2.801 1.461 4.973 3.5 6.516 6.125 1.55 2.618 2.328 5.606 2.328 8.97 0 3.366-.777 6.355-2.328 8.968-1.543 2.617-3.715 4.656-6.516 6.125-2.805 1.469-6.032 2.203-9.687 2.203h-14.08Zm13.877 31.438c3.03 0 5.68-.598 7.953-1.797 2.281-1.207 4.047-2.875 5.297-5s1.875-4.57 1.875-7.344c0-2.77-.625-5.219-1.875-7.344s-3.016-3.785-5.297-4.984c-2.274-1.207-4.922-1.813-7.953-1.813h-10.221v28.282Zm0 0"/>
		<g transform="translate(270.357 583.006)"/>
		<path d="M349.324 579.85v3.156H324.87v-34.594h23.718v3.157h-20.061v12.312h17.89v3.11h-17.89v12.859Zm0 0"/>
		<g transform="translate(388.209 583.006)"/>
		<path d="M452.253 583.303c-2.574 0-5.04-.41-7.39-1.234-2.356-.82-4.173-1.91-5.454-3.266l1.422-2.813c1.258 1.25 2.926 2.266 5 3.047 2.07.774 4.21 1.156 6.422 1.156 3.094 0 5.414-.566 6.969-1.703 1.55-1.144 2.328-2.625 2.328-4.437 0-1.375-.422-2.473-1.266-3.297-.844-.82-1.875-1.457-3.094-1.906-1.218-.446-2.914-.938-5.078-1.469-2.605-.656-4.683-1.285-6.234-1.89a10.255 10.255 0 0 1-3.985-2.797c-1.105-1.25-1.656-2.946-1.656-5.094 0-1.739.461-3.328 1.39-4.766.927-1.437 2.345-2.582 4.25-3.437 1.907-.852 4.274-1.282 7.11-1.282 1.977 0 3.914.274 5.813.813 1.894.543 3.535 1.293 4.922 2.25l-1.235 2.922c-1.449-.957-3-1.676-4.656-2.157-1.648-.476-3.262-.718-4.844-.718-3.031 0-5.312.59-6.844 1.765-1.53 1.168-2.296 2.672-2.296 4.516 0 1.387.421 2.5 1.265 3.344.844.836 1.895 1.476 3.156 1.922 1.27.437 2.977.922 5.126 1.453 2.53.625 4.578 1.246 6.14 1.86a10 10 0 0 1 3.985 2.765c1.093 1.23 1.64 2.902 1.64 5.015a8.489 8.489 0 0 1-1.422 4.766c-.937 1.438-2.383 2.578-4.328 3.422-1.937.836-4.324 1.25-7.156 1.25Zm0 0"/>
		<g transform="translate(503.393 583.006)"/>
		<path d="m568.626 566.74-7.064 7.172v9.094h-3.656v-34.594h3.656v20.907l20.312-20.907h4.188l-14.968 15.672 16.016 18.922h-4.344Zm0 0"/>
		<g clip-path="url(#a)">
				<path fill="#00cb75" d="m404.113 335.707-58.718 42.176-49.954 35.875c-18.957 13.617-45.37.066-45.37-23.274a28.66 28.66 0 0 1 12.331-23.554l82.993-57.512-82.993-57.508a28.66 28.66 0 0 1-12.332-23.555c0-23.34 26.414-36.89 45.371-23.273l49.954 35.875 58.718 42.176c17.98 12.914 17.98 39.664 0 52.574Zm146.235-52.574-58.723-42.176-49.95-35.875c-18.96-13.617-45.374-.066-45.374 23.273 0 9.399 4.61 18.204 12.336 23.555l82.988 57.512-82.988 57.508a28.66 28.66 0 0 0-12.336 23.554c0 23.344 26.414 36.895 45.375 23.278l49.949-35.88 58.723-42.171c17.98-12.914 17.98-39.664 0-52.578Zm0 0"/>
		</g>
		<g clip-path="url(#b)">
				<path fill="#231f20" d="M421.934 309.418c0-11.961-5.575-22.828-15.293-29.805l-108.672-78.05c-10.098-7.254-23.242-8.235-34.301-2.56-11.063 5.677-17.934 16.923-17.934 29.352a32.996 32.996 0 0 0 14.2 27.118l77.851 53.945-77.851 53.95a33.007 33.007 0 0 0-14.2 27.116c0 12.43 6.871 23.68 17.934 29.352a32.942 32.942 0 0 0 15.078 3.66c6.766 0 13.484-2.094 19.223-6.219L406.64 339.23c9.718-6.98 15.293-17.847 15.293-29.812Zm-20.348 22.773-108.672 78.047c-7.559 5.426-17.012 6.133-25.293 1.887-8.277-4.246-13.219-12.336-13.219-21.64a24.33 24.33 0 0 1 10.47-19.993l82.991-57.508a4.337 4.337 0 0 0 0-7.125l-82.992-57.511a24.33 24.33 0 0 1-10.469-19.993c0-9.304 4.942-17.394 13.223-21.64 3.586-1.84 7.39-2.75 11.168-2.75 4.941 0 9.836 1.562 14.121 4.637l108.672 78.05c7.422 5.332 11.68 13.63 11.68 22.77 0 9.137-4.258 17.437-11.68 22.77Zm151.289-52.578-108.672-78.05c-10.094-7.254-23.238-8.231-34.305-2.56-11.058 5.677-17.93 16.923-17.93 29.352a32.996 32.996 0 0 0 14.2 27.118l77.852 53.945-77.852 53.95a33.005 33.005 0 0 0-14.2 27.112c0 12.434 6.872 23.68 17.93 29.356a33.003 33.003 0 0 0 15.079 3.66c6.765 0 13.488-2.098 19.226-6.219l108.672-78.047c9.719-6.98 15.29-17.847 15.29-29.812 0-11.961-5.571-22.828-15.29-29.805Zm-5.055 52.578-108.672 78.047c-7.558 5.43-17.015 6.133-25.293 1.887-8.277-4.246-13.218-12.34-13.218-21.64a24.32 24.32 0 0 1 10.468-19.993l82.989-57.508a4.34 4.34 0 0 0 1.867-3.562 4.325 4.325 0 0 0-1.867-3.563l-82.989-57.511a24.328 24.328 0 0 1-10.468-19.989c0-9.304 4.941-17.394 13.218-21.64 3.586-1.84 7.395-2.75 11.168-2.75 4.946 0 9.84 1.558 14.122 4.636l108.671 78.047c7.422 5.332 11.68 13.633 11.68 22.77.004 9.137-4.254 17.437-11.676 22.77Zm0 0"/>
		</g>
		<g clip-path="url(#c)">
				<path fill="#eddc48" d="m550.418 335.707-58.723 42.176-49.949 35.875c-18.96 13.617-45.375.066-45.375-23.274 0-9.398 4.61-18.203 12.336-23.554l82.988-57.512-82.988-57.508a28.655 28.655 0 0 1-12.336-23.555c0-23.34 26.414-36.89 45.375-23.273l49.95 35.875 58.722 42.176c17.98 12.914 17.98 39.664 0 52.574Zm146.234-52.574-58.722-42.176-49.95-35.875c-18.96-13.617-45.375-.066-45.375 23.273a28.66 28.66 0 0 0 12.332 23.555l82.993 57.512-82.992 57.508a28.666 28.666 0 0 0-12.333 23.554c0 23.344 26.415 36.895 45.375 23.278l49.95-35.88 58.722-42.171c17.98-12.914 17.98-39.664 0-52.578Zm0 0"/>
		</g>
		<g clip-path="url(#d)">
				<path fill="#231f20" d="M568.238 309.418c0-11.961-5.574-22.828-15.293-29.805l-108.672-78.05c-10.101-7.254-23.242-8.235-34.304-2.56-11.059 5.677-17.93 16.923-17.93 29.352a32.996 32.996 0 0 0 14.2 27.118l77.847 53.945-77.848 53.95a33.007 33.007 0 0 0-14.199 27.116c0 12.43 6.871 23.68 17.934 29.352a32.938 32.938 0 0 0 15.074 3.66c6.765 0 13.488-2.094 19.226-6.219l108.672-78.047c9.72-6.98 15.293-17.847 15.293-29.812Zm-20.347 22.773-108.676 78.047c-7.555 5.426-17.012 6.133-25.29 1.887-8.277-4.246-13.218-12.336-13.218-21.64a24.33 24.33 0 0 1 10.469-19.993l82.988-57.508a4.34 4.34 0 0 0 1.867-3.562 4.336 4.336 0 0 0-1.867-3.563l-82.988-57.511a24.33 24.33 0 0 1-10.469-19.993c0-9.304 4.941-17.394 13.219-21.64 3.586-1.84 7.394-2.75 11.172-2.75 4.941 0 9.836 1.562 14.12 4.637l108.673 78.05c7.422 5.332 11.68 13.63 11.68 22.77 0 9.137-4.259 17.437-11.68 22.77Zm151.289-52.578-108.672-78.05c-10.098-7.254-23.242-8.231-34.305-2.56-11.058 5.677-17.93 16.923-17.93 29.352a32.996 32.996 0 0 0 14.2 27.118l77.847 53.945-77.847 53.95a33.005 33.005 0 0 0-14.2 27.112c0 12.434 6.872 23.68 17.93 29.356a33.003 33.003 0 0 0 15.078 3.66c6.766 0 13.489-2.098 19.227-6.219L699.18 339.23c9.718-6.98 15.289-17.847 15.289-29.812 0-11.961-5.57-22.828-15.29-29.805Zm-5.059 52.578L585.45 410.238c-7.554 5.43-17.011 6.133-25.289 1.887-8.281-4.246-13.222-12.34-13.222-21.64a24.33 24.33 0 0 1 10.468-19.993l82.992-57.508a4.337 4.337 0 0 0 0-7.125l-82.992-57.511a24.328 24.328 0 0 1-10.468-19.989c0-9.304 4.945-17.394 13.222-21.64 3.586-1.84 7.39-2.75 11.168-2.75 4.945 0 9.836 1.558 14.121 4.636l108.672 78.047c7.422 5.332 11.68 13.633 11.68 22.77s-4.258 17.437-11.68 22.77Zm0 0"/>
		</g>
		<g clip-path="url(#e)">
				<path fill="#fffefa" d="M616.414 231.012c0 1.32-.062 2.633-.191 3.949a40.157 40.157 0 0 1-1.543 7.742 39.45 39.45 0 0 1-1.332 3.723 39.725 39.725 0 0 1-3.723 6.965 39.682 39.682 0 0 1-5.008 6.105 40.049 40.049 0 0 1-2.93 2.652 38.802 38.802 0 0 1-3.175 2.356 39.087 39.087 0 0 1-3.39 2.031 40.503 40.503 0 0 1-7.293 3.023 39.969 39.969 0 0 1-7.746 1.54 39.198 39.198 0 0 1-3.95.195c-1.32 0-2.637-.063-3.95-.195a40.145 40.145 0 0 1-15.038-4.563 39.684 39.684 0 0 1-3.391-2.031 38.802 38.802 0 0 1-3.176-2.356 40.048 40.048 0 0 1-7.937-8.757 40.763 40.763 0 0 1-2.036-3.391 40.293 40.293 0 0 1-1.687-3.574 40.402 40.402 0 0 1-2.875-11.465 40.437 40.437 0 0 1-.191-3.95c0-1.32.062-2.636.191-3.948a40.48 40.48 0 0 1 2.875-11.469 39.71 39.71 0 0 1 3.723-6.961 38.802 38.802 0 0 1 2.355-3.176 40.048 40.048 0 0 1 5.582-5.586 40.7 40.7 0 0 1 3.176-2.355 40.722 40.722 0 0 1 3.39-2.032 41.458 41.458 0 0 1 3.575-1.691 41.337 41.337 0 0 1 3.722-1.332 39.23 39.23 0 0 1 3.832-.957 40.157 40.157 0 0 1 15.72 0 39.587 39.587 0 0 1 7.554 2.289 41.49 41.49 0 0 1 3.574 1.691 40.094 40.094 0 0 1 6.567 4.387 40.102 40.102 0 0 1 2.93 2.656c.933.934 1.816 1.91 2.655 2.93a39.682 39.682 0 0 1 2.352 3.176 39.71 39.71 0 0 1 3.723 6.96 40.48 40.48 0 0 1 2.875 11.469c.129 1.313.191 2.63.191 3.95Zm0 0"/>
		</g>
		<g clip-path="url(#f)">
				<path fill="#fffefa" d="M616.414 387.063a39.98 39.98 0 0 1-.773 7.855 40.184 40.184 0 0 1-2.293 7.559 39.724 39.724 0 0 1-3.723 6.965 39.683 39.683 0 0 1-5.008 6.105 40.701 40.701 0 0 1-6.105 5.008 40.328 40.328 0 0 1-14.52 6.016 40.381 40.381 0 0 1-7.86.773 40.381 40.381 0 0 1-15.413-3.067 40.328 40.328 0 0 1-10.14-6.078 40.048 40.048 0 0 1-5.582-5.582 40.763 40.763 0 0 1-4.39-6.566 40.293 40.293 0 0 1-1.689-3.574 40.184 40.184 0 0 1-2.293-7.559 41.2 41.2 0 0 1-.582-3.91 40.357 40.357 0 0 1-.191-3.945c0-1.32.062-2.637.191-3.95a41.2 41.2 0 0 1 .582-3.91 40.184 40.184 0 0 1 2.293-7.558 40.293 40.293 0 0 1 1.687-3.575 41.152 41.152 0 0 1 2.036-3.39 39.424 39.424 0 0 1 2.355-3.172 40.102 40.102 0 0 1 8.758-7.941 40.722 40.722 0 0 1 6.965-3.723 40.167 40.167 0 0 1 11.465-2.871 40.381 40.381 0 0 1 3.949-.196 40.381 40.381 0 0 1 15.414 3.067 40.328 40.328 0 0 1 20.113 18.226 40.293 40.293 0 0 1 1.688 3.575 40.184 40.184 0 0 1 2.293 7.559 39.98 39.98 0 0 1 .773 7.858Zm0 0"/>
		</g>
</svg>